<?xml version="1.0" encoding="UTF-8"?>
<!DOCTYPE svg PUBLIC "-//W3C//DTD SVG 1.1//EN" "http://www.w3.org/Graphics/SVG/1.1/DTD/svg11.dtd">
<svg xmlns="http://www.w3.org/2000/svg" version="1.1" width="99px" height="32px" style="shape-rendering:geometricPrecision; text-rendering:geometricPrecision; image-rendering:optimizeQuality; fill-rule:evenodd; clip-rule:evenodd" xmlns:xlink="http://www.w3.org/1999/xlink">
<g><path style="opacity:1" fill="#95989b" d="M -0.5,-0.5 C 32.5,-0.5 65.5,-0.5 98.5,-0.5C 98.5,10.1667 98.5,20.8333 98.5,31.5C 65.5,31.5 32.5,31.5 -0.5,31.5C -0.5,20.8333 -0.5,10.1667 -0.5,-0.5 Z"/></g>
<g><path style="opacity:1" fill="#f7f8f8" d="M 3.5,0.5 C 34.1685,0.333353 64.8351,0.50002 95.5,1C 96,1.5 96.5,2 97,2.5C 97.6667,11.1667 97.6667,19.8333 97,28.5C 96.5,29 96,29.5 95.5,30C 64.8333,30.6667 34.1667,30.6667 3.5,30C 2.33333,29.5 1.5,28.6667 1,27.5C 0.333333,19.5 0.333333,11.5 1,3.5C 1.69794,2.30943 2.53128,1.30943 3.5,0.5 Z"/></g>
<g><path style="opacity:1" fill="#272e34" d="M 37.5,5.5 C 41.1817,5.3347 44.8484,5.50137 48.5,6C 50.2603,6.96533 50.5937,8.132 49.5,9.5C 46.4475,6.31909 42.7809,5.65242 38.5,7.5C 34.7638,17.0412 37.7638,20.5412 47.5,18C 48.3366,16.9887 48.67,15.8221 48.5,14.5C 46.712,14.7852 45.0453,14.4519 43.5,13.5C 45.7427,12.5258 48.076,12.1924 50.5,12.5C 50.9675,15.3795 50.1341,17.7129 48,19.5C 44.4861,20.795 40.9861,20.795 37.5,19.5C 34.8392,14.8016 34.8392,10.1349 37.5,5.5 Z"/></g>
<g><path style="opacity:1" fill="#222b32" d="M 54.5,5.5 C 56.3079,6.91791 56.9746,8.91791 56.5,11.5C 59.8333,11.5 63.1667,11.5 66.5,11.5C 66.2011,9.39605 66.5344,7.39605 67.5,5.5C 68.8333,10.1667 68.8333,14.8333 67.5,19.5C 66.5344,17.604 66.2011,15.604 66.5,13.5C 63.1667,13.5 59.8333,13.5 56.5,13.5C 56.7989,15.604 56.4656,17.604 55.5,19.5C 54.5067,14.8804 54.1734,10.2137 54.5,5.5 Z"/></g>
<g><path style="opacity:1" fill="#252d33" d="M 79.5,5.5 C 83.7675,5.20299 87.9341,5.53632 92,6.5C 91.8889,10.6774 92.0555,15.0107 92.5,19.5C 88.1667,19.5 83.8333,19.5 79.5,19.5C 79.5,14.8333 79.5,10.1667 79.5,5.5 Z"/></g>
<g><path style="opacity:1" fill="#e7e9e9" d="M 81.5,6.5 C 84.1873,6.33591 86.854,6.50258 89.5,7C 90.3802,8.35613 90.7135,9.85613 90.5,11.5C 87.5,11.5 84.5,11.5 81.5,11.5C 81.5,9.83333 81.5,8.16667 81.5,6.5 Z"/></g>
<g><path style="opacity:1" fill="#2f4491" d="M 23.5,3.5 C 30.9559,8.61969 32.4559,15.2864 28,23.5C 26.7292,24.8825 25.2292,25.8825 23.5,26.5C 26.1667,18.8333 26.1667,11.1667 23.5,3.5 Z"/></g>
<g><path style="opacity:1" fill="#f4f6f6" d="M 81.5,13.5 C 84.5,13.5 87.5,13.5 90.5,13.5C 90.5,15.1667 90.5,16.8333 90.5,18.5C 87.5,18.5 84.5,18.5 81.5,18.5C 81.5,16.8333 81.5,15.1667 81.5,13.5 Z"/></g>
<g><path style="opacity:1" fill="#6a7075" d="M 72.5,5.5 C 73.5,5.5 74.5,5.5 75.5,5.5C 75.5,10.5 75.5,15.5 75.5,20.5C 74.5,20.5 73.5,20.5 72.5,20.5C 72.5,15.5 72.5,10.5 72.5,5.5 Z"/></g>
<g><path style="opacity:1" fill="#2f448f" d="M 12.5,3.5 C 9.87659,11.198 9.87659,18.8647 12.5,26.5C 7.26043,24.5332 4.9271,20.6999 5.5,15C 5.41436,9.66776 7.74769,5.83443 12.5,3.5 Z"/></g>
<g><path style="opacity:1" fill="#1c262f" d="M 23.5,3.5 C 26.1667,11.1667 26.1667,18.8333 23.5,26.5C 20.7674,27.6656 18.9341,26.6656 18,23.5C 17.0088,26.7467 15.1754,27.7467 12.5,26.5C 9.87659,18.8647 9.87659,11.198 12.5,3.5C 13.4232,2.69708 14.4232,2.53042 15.5,3C 16.4601,4.41941 17.2935,5.91941 18,7.5C 18.4875,3.80125 20.3208,2.46791 23.5,3.5 Z"/></g>
<g><path style="opacity:1" fill="#9fa4a8" d="M 20.5,6.5 C 23.081,7.82437 23.081,9.32437 20.5,11C 20.9054,11.9454 21.572,12.6121 22.5,13C 20.7174,14.0665 20.2174,15.5665 21,17.5C 21.7175,16.5494 22.5509,16.3828 23.5,17C 22.5,17.8333 21.5,18.6667 20.5,19.5C 22.8559,20.6539 23.0226,21.9873 21,23.5C 17.8479,17.9475 17.6812,12.2808 20.5,6.5 Z"/></g>
<g><path style="opacity:1" fill="#c5c9cb" d="M 15.5,11.5 C 16.6433,14.9758 16.8099,18.6425 16,22.5C 14.8438,23.9928 14.0104,23.8261 13.5,22C 14.0223,21.0497 14.689,20.2164 15.5,19.5C 14.5,18.8333 13.5,18.1667 12.5,17.5C 13.2739,16.2888 14.1072,16.2888 15,17.5C 15.49,16.2068 15.6567,14.8734 15.5,13.5C 14.448,13.6495 13.448,13.4828 12.5,13C 13.7375,12.7679 14.7375,12.2679 15.5,11.5 Z"/></g>
<g><path style="opacity:1" fill="#d6d9db" d="M 14.5,6.5 C 15.8478,7.52684 16.3478,8.86017 16,10.5C 13.6275,9.68285 13.1275,8.34952 14.5,6.5 Z"/></g>
<g><path style="opacity:1" fill="#97999c" d="M 35.5,22.5 C 40.1164,22.3925 44.4497,22.7258 48.5,23.5C 48.1667,24.5 47.5,25.1667 46.5,25.5C 42.8817,25.024 39.215,25.024 35.5,25.5C 35.5,24.5 35.5,23.5 35.5,22.5 Z"/></g>
<g><path style="opacity:1" fill="#979b9e" d="M 51.5,22.5 C 58.4765,22.9067 65.3099,22.9067 72,22.5C 75.1159,22.5745 77.9492,23.4078 80.5,25C 73.7056,25.443 66.8723,25.6097 60,25.5C 58.1049,25.3852 56.4382,24.7185 55,23.5C 54.6667,24.1667 54.3333,24.8333 54,25.5C 52.583,24.9221 51.7496,23.9221 51.5,22.5 Z"/></g>
<g><path style="opacity:1" fill="#979a9d" d="M 82.5,22.5 C 85.5064,23.6097 88.8398,23.7764 92.5,23C 91.541,24.4638 90.2077,25.2972 88.5,25.5C 86.5971,24.6469 84.5971,24.6469 82.5,25.5C 82.5,24.5 82.5,23.5 82.5,22.5 Z"/></g>
</svg>
